HIERARCHY
ROOT Hips
{
	OFFSET -0.001795 -0.223333 0.028219
	CHANNELS 6 Xposition Yposition Zposition Zrotation Yrotation Xrotation 
	JOINT LeftUpLeg
	{
		OFFSET 0.069520 -0.091406 -0.006815
		CHANNELS 3 Zrotation Yrotation Xrotation
		JOINT LeftLeg
		{
			OFFSET 0.034277 -0.375199 -0.004496
			CHANNELS 3 Zrotation Yrotation Xrotation
			JOINT LeftFoot
			{
				OFFSET -0.013596 -0.397961 -0.043693
				CHANNELS 3 Zrotation Yrotation Xrotation
				JOINT LeftToe
				{
					OFFSET 0.026358 -0.055791 0.119288
					CHANNELS 3 Zrotation Yrotation Xrotation
					End Site
					{
						OFFSET 0.000000 0.000000 0.000000
					}
				}
			}
		}
	}
	JOINT RightUpLeg
	{
		OFFSET -0.067670 -0.090522 -0.004320
		CHANNELS 3 Zrotation Yrotation Xrotation
		JOINT RightLeg
		{
			OFFSET -0.038290 -0.382569 -0.008850
			CHANNELS 3 Zrotation Yrotation Xrotation
			JOINT RightFoot
			{
				OFFSET 0.015774 -0.398415 -0.042312
				CHANNELS 3 Zrotation Yrotation Xrotation
				JOINT RightToe
				{
					OFFSET -0.025372 -0.048144 0.123348
					CHANNELS 3 Zrotation Yrotation Xrotation
					End Site
					{
						OFFSET 0.000000 0.000000 0.000000
					}
				}
			}
		}
	}
	JOINT Spine
	{
		OFFSET -0.002533 0.108963 -0.026696
		CHANNELS 3 Zrotation Yrotation Xrotation
		JOINT Spine1
		{
			OFFSET 0.005487 0.135180 0.001092
			CHANNELS 3 Zrotation Yrotation Xrotation
			JOINT Spine2
			{
				OFFSET 0.001457 0.052922 0.025425
				CHANNELS 3 Zrotation Yrotation Xrotation
				JOINT Neck
				{
					OFFSET -0.002778 0.213870 -0.042857
					CHANNELS 3 Zrotation Yrotation Xrotation
					JOINT Head
					{
						OFFSET 0.005152 0.064970 0.051349
						CHANNELS 3 Zrotation Yrotation Xrotation
						End Site
						{
							OFFSET 0.000000 0.000000 0.000000
						}
					}
				}
				JOINT LeftShoulder
				{
					OFFSET 0.078845 0.121749 -0.034090
					CHANNELS 3 Zrotation Yrotation Xrotation
					JOINT LeftArm
					{
						OFFSET 0.090977 0.030469 -0.008868
						CHANNELS 3 Zrotation Yrotation Xrotation
						JOINT LeftForeArm
						{
							OFFSET 0.259612 -0.012772 -0.027456
							CHANNELS 3 Zrotation Yrotation Xrotation
							JOINT LeftHand
							{
								OFFSET 0.249234 0.008986 -0.001171
								CHANNELS 3 Zrotation Yrotation Xrotation
								End Site
								{
									OFFSET 0.000000 0.000000 0.000000
								}
							}
						}
					}
				}
				JOINT RightShoulder
				{
					OFFSET -0.081759 0.118833 -0.038615
					CHANNELS 3 Zrotation Yrotation Xrotation
					JOINT RightArm
					{
						OFFSET -0.096012 0.032551 -0.009143
						CHANNELS 3 Zrotation Yrotation Xrotation
						JOINT RightForeArm
						{
							OFFSET -0.253742 -0.013329 -0.021401
							CHANNELS 3 Zrotation Yrotation Xrotation
							JOINT RightHand
							{
								OFFSET -0.255298 0.007772 -0.005559
								CHANNELS 3 Zrotation Yrotation Xrotation
								End Site
								{
									OFFSET 0.000000 0.000000 0.000000
								}
							}
						}
					}
				}
			}
		}
	}
}
MOTION
Frames: 16
Frame Time: 0.050000
0.000000 0.967445 0.000000 -0.677414 5.050954 -1.632044 4.130325 0.352288 9.402441 -2.406954 0.332723 -11.415292 -1.318050 6.670708 22.703025 0.000000 0.000000 0.000000 0.599999 -1.035036 8.975538 -1.473802 -0.203781 -6.904542 -5.157372 -15.031096 23.559510 0.000000 0.000000 0.000000 -1.065862 -0.133544 4.195031 2.372966 0.096750 -23.556672 -1.754596 -2.138649 26.623219 0.651866 0.691352 -16.374183 0.000000 0.000000 0.000000 5.120784 5.979854 -1.576045 -0.640949 -13.271272 -0.895876 8.266304 1.007551 0.067998 0.000000 0.000000 0.000000 -12.584118 -3.033064 -0.516151 6.463388 6.660014 -0.936465 -8.869454 2.283276 0.097800 0.000000 0.000000 0.000000 
0.000334 0.965597 0.000027 -1.211648 5.616360 -1.546504 4.640811 0.295347 9.848468 -2.001390 0.329020 -12.755558 -1.958668 5.973376 22.900451 0.000000 0.000000 0.000000 1.468662 -1.212172 9.658211 -2.261093 -0.240343 -8.113260 -4.711879 -14.268411 23.425746 0.000000 0.000000 0.000000 -0.721307 -0.145141 4.139019 1.982932 0.203967 -23.475449 -1.883549 -3.506910 25.889959 -0.788377 1.549144 -16.473039 0.000000 0.000000 0.000000 3.871659 4.960740 -1.417914 -0.221760 -10.209706 -0.667460 5.612386 -0.242705 0.028129 0.000000 0.000000 0.000000 -10.552027 -2.624857 -0.351965 6.513786 5.903977 -0.912545 -7.729765 5.610641 -0.055261 0.000000 0.000000 0.000000 
0.000592 0.964727 -0.000233 -0.855659 4.245972 -1.678295 4.176088 0.379805 9.666721 -1.730922 0.340479 -10.965783 -1.991456 5.006201 20.597535 0.000000 0.000000 0.000000 0.803282 -1.103470 9.479578 -1.616001 -0.249716 -7.810392 -4.976770 -14.828811 22.659785 0.000000 0.000000 0.000000 -0.767919 -0.147517 4.281170 1.863541 0.248150 -24.733037 -2.067253 -1.673764 27.692950 -0.071050 1.281537 -17.638529 0.000000 0.000000 0.000000 2.908684 5.339456 -1.602325 -0.701573 -12.667234 -0.868196 4.725506 0.856309 0.031650 0.000000 0.000000 0.000000 -8.682675 -3.641815 -0.850479 9.526259 7.787012 -1.188831 -9.160349 4.792202 -0.027984 0.000000 0.000000 0.000000 
0.000948 0.964263 -0.000389 -1.007280 4.893734 -1.949449 4.609171 0.332205 10.043678 -1.921540 0.333425 -11.109919 -2.713414 3.928047 20.067619 0.000000 0.000000 0.000000 0.942363 -1.248585 10.465320 -1.322204 -0.304464 -8.524191 -5.218642 -15.058051 21.903611 0.000000 0.000000 0.000000 -1.080302 -0.140114 4.364688 2.676318 0.052692 -24.495155 -2.656288 -2.638203 28.143715 -0.355942 1.392576 -17.965080 0.000000 0.000000 0.000000 0.950412 5.743578 -1.940367 -2.190148 -11.801332 -0.896885 4.897214 -0.707950 0.022500 0.000000 0.000000 0.000000 -7.892103 -3.017536 -0.664333 10.078084 7.854809 -1.227910 -7.604242 4.854148 -0.009365 0.000000 0.000000 0.000000 
0.001070 0.964152 -0.000586 -0.928816 4.993816 -2.178760 4.601078 0.339478 10.230552 -2.239332 0.331751 -10.883464 -2.426182 4.186141 19.595343 0.000000 0.000000 0.000000 0.968327 -1.255904 10.495982 -1.272673 -0.306030 -8.517345 -5.941480 -16.188049 22.678610 0.000000 0.000000 0.000000 -1.510890 -0.137520 4.768846 3.100704 -0.031610 -24.926840 -2.660449 -2.549934 27.762143 -0.181970 1.281715 -17.655623 0.000000 0.000000 0.000000 -0.518249 5.114929 -1.849688 -3.548256 -12.107488 -0.976778 4.884641 -2.713945 0.002076 0.000000 0.000000 0.000000 -6.588755 -2.886058 -0.686818 12.122963 7.920586 -1.361583 -7.235554 6.309420 -0.049163 0.000000 0.000000 0.000000 
0.001285 0.964017 -0.000750 -0.738808 5.775969 -2.018217 4.583492 0.309117 9.993139 -2.174862 0.319764 -10.730460 -3.363345 2.800985 19.123705 0.000000 0.000000 0.000000 0.885355 -1.233061 10.276533 -1.369913 -0.296938 -8.408281 -6.400762 -16.780252 23.094885 0.000000 0.000000 0.000000 -2.058054 -0.099991 4.165755 3.332153 -0.092683 -24.552909 -2.930918 -3.591721 27.843768 0.283334 0.930080 -18.829257 0.000000 0.000000 0.000000 -1.724650 5.531332 -2.110801 -6.090947 -12.918688 -1.133956 5.133643 -3.970843 -0.010319 0.000000 0.000000 0.000000 -6.077035 -2.819355 -0.650327 15.079373 9.243774 -1.480310 -7.357723 6.534860 -0.061285 0.000000 0.000000 0.000000 
0.001351 0.963773 -0.000969 -0.714895 5.535533 -2.067417 4.590391 0.314488 9.942908 -2.322538 0.323368 -10.474154 -3.147739 3.002300 18.930387 0.000000 0.000000 0.000000 0.928971 -1.197456 9.993224 -1.442599 -0.275536 -8.107766 -6.690785 -17.249361 23.396343 0.000000 0.000000 0.000000 -2.175957 -0.094646 4.112328 3.471031 -0.151902 -24.079641 -2.969974 -3.571316 27.385386 0.278663 0.920009 -18.823841 0.000000 0.000000 0.000000 -3.463860 5.220176 -2.152214 -8.078400 -12.835649 -1.225367 5.320962 -4.812473 -0.023403 0.000000 0.000000 0.000000 -4.209023 -2.139260 -0.524093 16.759822 9.056426 -1.585659 -7.289045 7.884411 -0.107479 0.000000 0.000000 0.000000 
0.001379 0.963491 -0.001166 -0.732210 5.442388 -1.891619 4.614124 0.302964 9.672787 -2.309801 0.323319 -10.177142 -3.145218 2.809109 18.441137 0.000000 0.000000 0.000000 0.926136 -1.144870 9.582544 -1.288115 -0.262349 -7.758708 -6.899201 -17.559443 23.166084 0.000000 0.000000 0.000000 -2.171728 -0.092022 4.057720 3.661631 -0.189967 -24.292415 -3.242128 -3.578019 27.795753 0.961526 0.500551 -19.635699 0.000000 0.000000 0.000000 -5.540849 4.890352 -2.207841 -10.426785 -12.652533 -1.364441 5.474889 -5.731060 -0.037672 0.000000 0.000000 0.000000 -2.274341 -1.843341 -0.529952 19.016080 9.589921 -1.703635 -7.089147 9.065246 -0.133400 0.000000 0.000000 0.000000 
0.001324 0.963065 -0.001308 -0.694821 5.151317 -1.782551 4.686602 0.298436 9.556977 -2.596462 0.329586 -10.125004 -2.918326 3.068702 18.379785 0.000000 0.000000 0.000000 0.688597 -1.105406 9.479943 -0.971274 -0.281091 -7.829582 -6.781062 -17.418788 22.914201 0.000000 0.000000 0.000000 -2.213229 -0.083337 3.806645 3.722286 -0.234310 -23.764242 -3.268333 -3.509152 27.650804 0.968406 0.522199 -20.183660 0.000000 0.000000 0.000000 -7.658397 4.401424 -2.190045 -12.821854 -12.554931 -1.499455 6.052729 -5.939671 -0.060117 0.000000 0.000000 0.000000 -0.372808 -1.295927 -0.437599 21.482514 9.874980 -1.814726 -7.037579 10.749039 -0.180954 0.000000 0.000000 0.000000 
0.001227 0.962744 -0.001434 -0.677878 4.959441 -1.641848 4.764565 0.288832 9.408144 -2.819659 0.334131 -10.362860 -2.771631 3.466271 18.976998 0.000000 0.000000 0.000000 0.635738 -1.058355 9.153734 -0.930488 -0.267127 -7.538174 -6.712466 -17.331224 22.621738 0.000000 0.000000 0.000000 -2.257399 -0.075093 3.569179 3.747633 -0.260878 -23.407696 -3.391145 -3.469764 27.497655 1.277147 0.342421 -20.596958 0.000000 0.000000 0.000000 -9.556564 4.044253 -2.202452 -15.562169 -12.434694 -1.654511 6.034773 -6.203687 -0.056794 0.000000 0.000000 0.000000 1.599704 -0.591011 -0.283302 24.033943 9.986082 -1.938475 -6.238371 11.771168 -0.143478 0.000000 0.000000 0.000000 
0.001151 0.962158 -0.001470 -0.731888 4.748471 -1.603492 4.856233 0.281633 9.327636 -2.876086 0.337544 -10.287649 -2.675907 3.541256 18.893464 0.000000 0.000000 0.000000 0.601610 -1.040932 9.057704 -0.764742 -0.274290 -7.523697 -6.711859 -17.354644 22.467701 0.000000 0.000000 0.000000 -2.382792 -0.070020 3.533992 3.873494 -0.300547 -23.336034 -3.298645 -3.411492 27.444210 1.227495 0.399491 -21.066532 0.000000 0.000000 0.000000 -11.568580 3.766799 -2.250518 -18.024603 -12.314703 -1.809448 5.693422 -6.101185 -0.032389 0.000000 0.000000 0.000000 3.361025 0.080614 -0.116399 26.666108 9.779610 -2.119723 -5.365402 12.703466 -0.082183 0.000000 0.000000 0.000000 
0.001142 0.961814 -0.001463 -0.644585 4.335248 -1.603561 4.803195 0.296044 9.244455 -2.838812 0.343339 -10.244802 -2.776533 3.515533 19.407690 0.000000 0.000000 0.000000 0.490747 -1.016962 8.992925 -0.692712 -0.259746 -7.176298 -6.552250 -17.143355 21.437809 0.000000 0.000000 0.000000 -2.432282 -0.067436 3.515515 3.926266 -0.328285 -23.179966 -3.325352 -3.274306 27.332380 1.153375 0.469220 -21.594317 0.000000 0.000000 0.000000 -13.646542 4.008304 -2.548685 -20.845430 -12.189043 -1.991102 5.183908 -6.088293 -0.000701 0.000000 0.000000 0.000000 5.469704 0.631649 -0.004697 29.236749 9.685972 -2.281011 -4.579559 13.391755 -0.011497 0.000000 0.000000 0.000000 
0.001193 0.961429 -0.001340 -0.621894 4.105555 -1.530132 4.819094 0.295684 9.128309 -2.947005 0.347665 -10.074433 -2.650696 3.594147 19.224819 0.000000 0.000000 0.000000 0.266159 -0.991078 8.976074 -0.590292 -0.269742 -7.278235 -6.103982 -16.481770 21.274584 0.000000 0.000000 0.000000 -2.461610 -0.063036 3.392267 3.959156 -0.356405 -22.880562 -3.308941 -3.116123 27.156431 1.080421 0.536967 -21.779150 0.000000 0.000000 0.000000 -15.930958 3.768219 -2.664014 -23.035844 -11.830484 -2.161680 4.814594 -6.320799 0.019876 0.000000 0.000000 0.000000 7.603067 1.112346 0.095584 31.902998 8.987105 -2.577783 -4.164138 14.318171 0.036195 0.000000 0.000000 0.000000 
0.001266 0.961165 -0.001177 -0.592003 3.932771 -1.510131 4.750326 0.304573 9.062793 -2.942106 0.349955 -9.936805 -2.497316 3.754963 19.133045 0.000000 0.000000 0.000000 0.055267 -0.971806 9.000675 -0.491036 -0.267756 -7.139615 -5.609338 -15.709136 20.655627 0.000000 0.000000 0.000000 -2.288145 -0.067943 3.399357 3.829130 -0.340420 -22.594910 -3.453225 -2.903002 26.962714 1.216634 0.504130 -22.220175 0.000000 0.000000 0.000000 -18.008467 3.846008 -2.957273 -25.381168 -11.206864 -2.385902 4.411534 -6.895296 0.043616 0.000000 0.000000 0.000000 9.827447 1.355104 0.108633 34.261242 8.515224 -2.832317 -3.788394 14.861575 0.089794 0.000000 0.000000 0.000000 
0.001275 0.960780 -0.000930 -0.519970 3.959622 -1.503174 4.755746 0.305815 9.117584 -3.085537 0.351648 -9.854978 -2.507059 3.589272 18.690565 0.000000 0.000000 0.000000 -0.111484 -0.968488 9.107962 -0.300887 -0.284031 -7.278372 -5.657344 -15.775221 20.517007 0.000000 0.000000 0.000000 -2.376909 -0.064456 3.364162 3.857133 -0.352771 -22.491451 -3.460252 -2.822515 26.901430 1.068567 0.622545 -22.325933 0.000000 0.000000 0.000000 -19.775226 3.830796 -3.175027 -27.568228 -10.311558 -2.679352 4.210520 -7.722621 0.061999 0.000000 0.000000 0.000000 11.209342 1.501189 0.124849 37.070398 7.702042 -3.231126 -3.583471 15.266695 0.130870 0.000000 0.000000 0.000000 
0.001226 0.960442 -0.000732 -0.396021 3.790933 -1.434726 4.846374 0.291393 8.863848 -3.241502 0.356294 -9.644421 -2.889218 3.163760 19.124799 0.000000 0.000000 0.000000 -0.348564 -0.942346 9.099520 -0.160125 -0.289195 -7.246138 -5.487762 -15.502987 20.028280 0.000000 0.000000 0.000000 -2.374349 -0.062440 3.303784 3.729246 -0.337457 -22.195094 -3.533987 -2.696712 26.752380 0.995635 0.717464 -22.945854 0.000000 0.000000 0.000000 -21.461537 4.072614 -3.531385 -29.998923 -9.142116 -3.075140 3.883593 -8.380191 0.092861 0.000000 0.000000 0.000000 13.023682 1.647469 0.106489 39.673656 7.032282 -3.593328 -3.315952 15.654624 0.178691 0.000000 0.000000 0.000000 
